Jump_normalized_Motion_pl06
version=1
nRows=12
nColumns=43
inDegrees=yes
endheader
time		pelvis_tilt		pelvis_list		pelvis_rotation		pelvis_tx		pelvis_ty		pelvis_tz		hip_flexion_r		hip_adduction_r		hip_rotation_r		knee_angle_r		ankle_angle_r		subtalar_angle_r		mtp_angle_r		hip_flexion_l		hip_adduction_l		hip_rotation_l		knee_angle_l		ankle_angle_l		subtalar_angle_l		mtp_angle_l		lumbar_extension		lumbar_bending		lumbar_rotation		neck_flexion		neck_lateral_bending		neck_rotation		arm_flex_r		arm_add_r		arm_rot_r		elbow_flex_r		pro_sup_r		wrist_flex_r		wrist_dev_r		hand_finger_flex_r		arm_flex_l		arm_add_l		arm_rot_l		elbow_flex_l		pro_sup_l		wrist_flex_l		wrist_dev_l		hand_finger_flex_l		
0.149167		-0.332744		-5.318939		88.027039		0.065929		1.751307		1.859231		82.297544		-1.514907		1.964474		-151.763787		25.242271		2.440787		1.748205		80.580833		-7.035931		13.485532		-150.639970		21.430275		23.684234		25.455200		-55.783715		-3.311612		2.305543		40.248123		1.381968		-6.000839		47.898696		-24.108204		-6.984933		77.147146		93.202155		-1.241269		-13.349462		-5.688303		65.059895		-18.992330		13.220979		53.601833		109.910487		-13.704997		-8.374408		16.672156		
0.152399		-0.283224		-5.662641		88.012177		0.066094		1.751378		1.857264		82.320035		-1.482619		1.884505		-151.697315		25.244305		2.449029		1.873538		80.586296		-7.063777		13.444814		-150.590297		21.548952		23.365481		25.447614		-55.463526		-3.303136		2.366757		40.304186		1.458436		-6.021461		49.292687		-24.296096		-6.646799		77.230327		93.407004		-1.146170		-13.275267		-5.442176		66.386584		-19.054028		13.965260		53.720285		109.978464		-13.703783		-7.850810		16.690165		
0.155631		-0.270778		-6.008626		87.985116		0.066193		1.751472		1.855239		82.342584		-1.468315		1.859722		-151.631355		25.242419		2.461695		2.019018		80.592067		-7.070613		13.398827		-150.524528		21.582620		23.175314		25.449695		-55.145968		-3.312643		2.400694		40.449005		1.516915		-6.029718		50.715777		-24.457631		-6.313281		77.293977		93.656401		-1.087280		-13.209967		-5.178437		67.725085		-19.026603		14.626228		53.748252		110.001962		-13.850104		-7.326028		16.638429		
0.158864		-0.268488		-6.371142		87.960431		0.066273		1.751497		1.853165		82.373048		-1.456694		1.849506		-151.568280		25.259365		2.496481		2.147569		80.618063		-7.067417		13.377740		-150.459759		21.594666		23.092143		25.478921		-54.802605		-3.315383		2.426845		40.582856		1.550672		-6.031376		52.133871		-24.637067		-5.937493		77.370304		93.885611		-1.057134		-13.151019		-4.971656		69.074965		-18.950751		15.241618		53.669062		110.101554		-14.009002		-6.952221		16.578744		
0.162096		-0.260733		-6.741745		87.946070		0.066347		1.751516		1.851058		82.386192		-1.457008		1.831532		-151.498706		25.298109		2.543531		2.282290		80.652597		-7.059693		13.366742		-150.387757		21.597357		23.031288		25.535205		-54.446717		-3.304454		2.457892		40.692850		1.574456		-6.025317		53.553789		-24.852171		-5.508709		77.450804		94.086079		-1.083222		-13.107150		-4.803423		70.452325		-18.860235		15.909053		53.509260		110.269356		-14.227654		-6.663753		16.513331		
0.165328		-0.247264		-7.137824		87.944839		0.066419		1.751514		1.848911		82.409450		-1.465434		1.801579		-151.417981		25.357870		2.584297		2.411104		80.706375		-7.050666		13.358465		-150.312411		21.605633		22.961996		25.604877		-54.063943		-3.275200		2.482099		40.836279		1.596553		-6.018079		54.969983		-25.080543		-5.023071		77.531198		94.224425		-1.144738		-13.070276		-4.690776		71.829188		-18.745640		16.533182		53.298116		110.457706		-14.430212		-6.471078		16.471178		
0.168561		-0.226363		-7.569779		87.952340		0.066489		1.751502		1.846710		82.446362		-1.474242		1.744217		-151.325189		25.430459		2.611365		2.503784		80.778679		-7.036120		13.349991		-150.239219		21.632347		22.867998		25.658741		-53.648390		-3.232150		2.497460		41.013052		1.626775		-6.007973		56.387546		-25.276776		-4.546900		77.611971		94.302680		-1.204720		-13.028196		-4.658228		73.163450		-18.616973		17.026095		53.101254		110.641866		-14.495824		-6.336618		16.457294		
0.171793		-0.192172		-8.013952		87.969170		0.066592		1.751554		1.844453		82.467270		-1.493268		1.667811		-151.214496		25.507163		2.634129		2.601787		80.846202		-7.022243		13.342849		-150.143533		21.673419		22.741725		25.715329		-53.220254		-3.182695		2.521130		41.173728		1.670104		-5.995325		57.800251		-25.457751		-4.069691		77.680945		94.354191		-1.304817		-12.989314		-4.654693		74.478073		-18.501062		17.527152		52.932899		110.816230		-14.532206		-6.210674		16.444897		
0.175025		-0.154963		-8.479152		87.994304		0.066723		1.751600		1.842163		82.507759		-1.502411		1.576515		-151.106876		25.589474		2.638914		2.680898		80.923060		-7.013843		13.329344		-150.061954		21.742318		22.605442		25.760377		-52.773281		-3.129520		2.531863		41.381836		1.729124		-5.983469		59.230746		-25.615277		-3.585998		77.718643		94.408166		-1.369517		-12.921193		-4.671778		75.769524		-18.384673		17.936958		52.811810		110.954525		-14.435107		-6.076991		16.443854		
0.178258		-0.060285		-8.903932		88.050764		0.066790		1.751732		1.839747		82.448146		-1.523940		1.400804		-150.974970		25.669490		2.624180		2.847619		80.943578		-6.977716		13.350970		-149.960710		21.851938		22.296334		25.852177		-52.347617		-3.011899		2.559206		41.391127		1.792391		-5.907507		60.679921		-25.824504		-2.944884		77.734293		94.391255		-1.646137		-12.870430		-4.765530		77.038531		-18.443236		18.582863		52.802415		111.054405		-14.239489		-5.871669		16.376464		
0.181490		-0.008480		-9.356565		88.071611		0.066884		1.751950		1.837258		82.438570		-1.542994		1.290839		-150.842202		25.703630		2.610421		2.962532		80.949447		-6.966829		13.341907		-149.853530		21.931285		22.131530		25.919637		-51.919580		-2.948669		2.561250		41.648356		1.865459		-5.874831		62.118818		-25.861482		-2.513278		77.728275		94.395365		-1.784599		-12.806296		-4.810603		78.223022		-18.344626		18.849081		52.798208		111.072914		-14.096256		-5.700611		16.277584		
0.184722		0.075785		-9.771910		88.106953		0.066929		1.752216		1.834704		82.360129		-1.557736		1.147719		-150.704140		25.756618		2.607601		3.096427		80.899507		-6.948330		13.350249		-149.751841		22.075264		21.912209		26.009858		-51.516070		-2.843708		2.562407		41.770677		1.923981		-5.795090		63.601422		-25.953915		-1.943863		77.692544		94.474280		-1.874753		-12.712626		-4.839743		79.421131		-18.365586		19.280855		52.834658		111.197830		-13.857410		-5.520135		16.122034		
